/* XPM */
static char *bitcoin64[] = {
/* columns rows colors chars-per-pixel */
"64 62 29 1 ",
"  c #373435",
". c #383536",
"X c #393637",
"o c #3A3738",
"O c #3B3839",
"+ c #3B3939",
"@ c #3B383A",
"# c #3C393A",
"$ c #3D3A3B",
"% c #3D3B3C",
"& c #3E3B3C",
"* c #3E3C3D",
"= c #3F3C3D",
"- c #3F3D3E",
"; c #403D3E",
": c #413E3F",
"> c #413F40",
", c #423F40",
"< c #424040",
"1 c #424041",
"2 c #434041",
"3 c #434142",
"4 c #444142",
"5 c #444242",
"6 c #464344",
"7 c #474445",
"8 c #494647",
"9 c #B2D242",
"0 c None",
/* pixels */
"0000000000000000000000000000990000000000000000000000000000000000",
"0000000000000000000000000009999000000000000000000000000000000000",
"0000000000000000000000000999999990000000000000000000000000000000",
"0000000000000000000000099999999999000000000000000000000000000000",
"0000000000000000000009999999999999990000000000000000000000000000",
"0000000000000000000999999999999999999900000000000000000000000000",
"0000000000000000099999999990099999999990000000000000000000000000",
"0000000000000009999999999000009999999999900000000000000000000000",
"0000000000000999999999900000000099999999990000000000000000000000",
"0000000000099999999990000000000000999999999900000000000000000000",
"0000000009999999999000000000000000099999999990000000000000000000",
"0000000999999999900000000000000000000999999999900000000000000000",
"0000099999999990000000000000000000000099999999990000000000000000",
"0009999999999000000000000000000000000000999999999900000000000000",
"0099999999900000000000000000000000000000999999999990000000000000",
"0099999990000000000000000000000000000099999999999900000009000000",
"0099999900000000000000000000000000009999999999990000000009999900",
"0099999900000000000000000000000000999999999999000000000009999999",
"0099999900000000000000000000000099999999999900000000000999999990",
"0099999000000000000000000000009999999999990000000000099999999990",
"0999999000000000000000000000999999999999000000000009999999999990",
"0999999000000000000000000099999999999900000000000999999999999900",
"0999999000000000000000009999999999990000000000099999999999909900",
"0999999000000000000099999999999999000000000009999999999990009000",
"0999999000000000000999999999999900000000000999999999999000000000",
"0999999000000000000999999999990000000000099999999999900000000000",
"0999999000000000000999999999900000000009999999999990000000000000",
"0999999000000000000999999990000000000999999999999000000000000000",
"0999999000000000000999999000000000099999999999900000000000000000",
"0999999000000000000099999000000009999999999999000000000000000000",
"099999900000000000000000000000009999999999990000000##;0000000000",
"0999999000000000000000000000009999999999990000000>X   #000000000",
"0999999000000000000000000000999999999999000000000o     ;00000000",
"0999999000000000000000000099999999999900000000000X     #00000000",
"0999999000000000000000009999999999990000000000000X     *00000000",
"0999999000000000000000999999999999000000000000000#    X000000000",
"99999990000000000000999999999999000000000000000006X   ;000000000",
"99999900000000000099999999999900000000000000000000X  O0000000000",
"9999990000000000999999999999000000000000000000000*   o0000000000",
"99999900000000999999999999000000000000000000000006   X0000000000",
"99999900000099999999999900000000000000000000000005   %0000000000",
"999999000099999999999900000000%;00000000000000000#   *0000000000",
"999999909999999999990000000000O XXO%7000000000000#   #0000000000",
"99999999999999999900000000000;X     >000000000000>   O0000000000",
"999999999999999900000000000>o      o0000000000000;   >0000000000",
"9999999999999900000000000>O        ;0000000000000o   20000000000",
"009999999999900000000005#X        X000000000000%X   X#0000000000",
"0009999999900000000000OX       o#X#0000000000%X     X;0000000000",
"00000999900000000000#X       X#00;000000000%X      #500000000000",
"000000000000000000%X        #000000000000*X     XO50000000000000",
"0000000000000000%X        O>00000000000*X     XO2000000000000000",
"00000000000000*X        X;00000000000;X     XO200000000000000000",
"0000000000008O        X%00000000000;X      #20000000000000000000",
"0000000000000>X      X20000000000;oX    XO2000000000000000000000",
"000000000000000#X     o>0000000>O     XO200000000000000000000000",
"0000000000000000>X      #00002O     XO>0000000000000000000000000",
"000000000000000000#X     X;>O     XO>000000000000000000000000000",
"00000000000000000002o            O200000000000000000000000000000",
"000000000000000000000%X       XO>0000000000000000000000000000000",
"00000000000000000000002o     O>000000000000000000000000000000000",
"000000000000000000000000%X o>00000000000000000000000000000000000",
"00000000000000000000000005>0000000000000000000000000000000000000"
};
