/* XPM */
static char *bitcoin32[] = {
/* columns rows colors chars-per-pixel */
"32 31 13 1 ",
"  c #373435",
". c #383536",
"X c #383637",
"o c #393637",
"O c #393737",
"+ c #3A3738",
"@ c #3A3839",
"# c #3B3839",
"$ c #3C393A",
"% c #3D3A3B",
"& c #3E3B3C",
"* c #B2D242",
"= c None",
/* pixels */
"==============*=================",
"============*****===============",
"==========********==============",
"========*****==*****============",
"======*****=====*****===========",
"====*****=========*****=========",
"==*****=============****========",
"=****==============******=======",
"=***=============******=====****",
"=***===========******======*****",
"=***==========******=====******=",
"=***=======*******=====******=*=",
"=***======******=====******=====",
"****=====*****=====******=======",
"***=======***====******=========",
"***============******====@+=====",
"***==========******=====%  +====",
"***========******=======%  @====",
"***======******==========XX=====",
"***====*******===========XX=====",
"***==*******============= +=====",
"**********=====XX+=======XX=====",
"********=====%X  +======& @=====",
"=*****=====%X  XX%=====@X @=====",
"===*=====%X  X+======+X X%======",
"=======%X   X======@X X%========",
"=======X   %=====@X X%==========",
"========+  +===%XXX%============",
"=========%X  +X X%==============",
"===========+  X%================",
"============%%=================="
};
