/* XPM */
static char *bitcoin128[] = {
/* columns rows colors chars-per-pixel */
"128 123 81 1 ",
"  c #363334",
". c #373435",
"X c #373535",
"o c #383536",
"O c #383637",
"+ c #393637",
"@ c #393737",
"# c #393738",
"$ c #3A3738",
"% c #3A3839",
"& c #3B3839",
"* c #3C393A",
"= c #3C3A3A",
"- c #3C3A3B",
"; c #3D3A3B",
": c #3D3B3C",
"> c #3E3B3C",
", c #3E3C3C",
"< c #3E3C3D",
"1 c #3F3C3D",
"2 c #3F3C3E",
"3 c #3F3D3E",
"4 c #403D3E",
"5 c #413E3F",
"6 c #413F3F",
"7 c #413F40",
"8 c #423F40",
"9 c #424040",
"0 c #424041",
"q c #434041",
"w c #434141",
"e c #434042",
"r c #434142",
"t c #444142",
"y c #444243",
"u c #454243",
"i c #454343",
"p c #454344",
"a c #464344",
"s c #464445",
"d c #474445",
"f c #474446",
"g c #474546",
"h c #484546",
"j c #484647",
"k c #494647",
"l c #494648",
"z c #4A4748",
"x c #4A4749",
"c c #4A4848",
"v c #4B4848",
"b c #4A4849",
"n c #4B4849",
"m c #4B484A",
"M c #4B494A",
"N c #4C494A",
"B c #4C4A4A",
"V c #4C4A4B",
"C c #4D4A4B",
"Z c #4D4B4B",
"A c #4D4B4C",
"S c #4E4B4C",
"D c #4E4C4C",
"F c #4E4C4D",
"G c #4F4C4D",
"H c #4F4D4D",
"J c #4F4D4E",
"K c #504D4E",
"L c #504E4E",
"P c #504E4F",
"I c #514E4F",
"U c #524F50",
"Y c #535151",
"T c #545252",
"R c #555253",
"E c #575455",
"W c #585556",
"Q c #B2D242",
"! c #B2D342",
"~ c #B2D243",
"^ c None",
/* pixels */
"^^^^^^^^^^^^^^^^^^^^^^^^^^^^^^^^^^^^^^^^^^^^^^^^^^^^^^^^^^Q^^^^^^^^^^^^^^^^^^^^^^^^^^^^^^^^^^^^^^^^^^^^^^^^^^^^^^^^^^^^^^^^^^^^^",
"^^^^^^^^^^^^^^^^^^^^^^^^^^^^^^^^^^^^^^^^^^^^^^^^^^^^^^^^QQQQQ^^^^^^^^^^^^^^^^^^^^^^^^^^^^^^^^^^^^^^^^^^^^^^^^^^^^^^^^^^^^^^^^^^^",
"^^^^^^^^^^^^^^^^^^^^^^^^^^^^^^^^^^^^^^^^^^^^^^^^^^^^^^QQQQQQQQ^^^^^^^^^^^^^^^^^^^^^^^^^^^^^^^^^^^^^^^^^^^^^^^^^^^^^^^^^^^^^^^^^^",
"^^^^^^^^^^^^^^^^^^^^^^^^^^^^^^^^^^^^^^^^^^^^^^^^^^^^QQQQQQQQQQQQ^^^^^^^^^^^^^^^^^^^^^^^^^^^^^^^^^^^^^^^^^^^^^^^^^^^^^^^^^^^^^^^^",
"^^^^^^^^^^^^^^^^^^^^^^^^^^^^^^^^^^^^^^^^^^^^^^^^^^QQQQQQQQQQQQQQQ^^^^^^^^^^^^^^^^^^^^^^^^^^^^^^^^^^^^^^^^^^^^^^^^^^^^^^^^^^^^^^^",
"^^^^^^^^^^^^^^^^^^^^^^^^^^^^^^^^^^^^^^^^^^^^^^^^QQQQQQQQQQQQQQQQQQQ^^^^^^^^^^^^^^^^^^^^^^^^^^^^^^^^^^^^^^^^^^^^^^^^^^^^^^^^^^^^^",
"^^^^^^^^^^^^^^^^^^^^^^^^^^^^^^^^^^^^^^^^^^^^^^QQQQQQQQQQQQQQQQQQQQQQ^^^^^^^^^^^^^^^^^^^^^^^^^^^^^^^^^^^^^^^^^^^^^^^^^^^^^^^^^^^^",
"^^^^^^^^^^^^^^^^^^^^^^^^^^^^^^^^^^^^^^^^^^^^QQQQQQQQQQQQQQQQQQQQQQQQQQ^^^^^^^^^^^^^^^^^^^^^^^^^^^^^^^^^^^^^^^^^^^^^^^^^^^^^^^^^^",
"^^^^^^^^^^^^^^^^^^^^^^^^^^^^^^^^^^^^^^^^^^QQQQQQQQQQQQQQQQQQQQQQQQQQQQQ^^^^^^^^^^^^^^^^^^^^^^^^^^^^^^^^^^^^^^^^^^^^^^^^^^^^^^^^^",
"^^^^^^^^^^^^^^^^^^^^^^^^^^^^^^^^^^^^^^^^QQQQQQQQQQQQQQQQQQQQQQQQQQQQQQQQQ^^^^^^^^^^^^^^^^^^^^^^^^^^^^^^^^^^^^^^^^^^^^^^^^^^^^^^^",
"^^^^^^^^^^^^^^^^^^^^^^^^^^^^^^^^^^^^^^QQQQQQQQQQQQQQQQQQQQQQQQQQQQQQQQQQQQ^^^^^^^^^^^^^^^^^^^^^^^^^^^^^^^^^^^^^^^^^^^^^^^^^^^^^^",
"^^^^^^^^^^^^^^^^^^^^^^^^^^^^^^^^^^^^QQQQQQQQQQQQQQQQQQQQQQQQQQQQQQQQQQQQQQQQ^^^^^^^^^^^^^^^^^^^^^^^^^^^^^^^^^^^^^^^^^^^^^^^^^^^^",
"^^^^^^^^^^^^^^^^^^^^^^^^^^^^^^^^^^QQQQQQQQQQQQQQQQQQQQQ^^QQQQQQQQQQQQQQQQQQQQ^^^^^^^^^^^^^^^^^^^^^^^^^^^^^^^^^^^^^^^^^^^^^^^^^^^",
"^^^^^^^^^^^^^^^^^^^^^^^^^^^^^^^^QQQQQQQQQQQQQQQQQQQQQ^^^^^^QQQQQQQQQQQQQQQQQQQQ^^^^^^^^^^^^^^^^^^^^^^^^^^^^^^^^^^^^^^^^^^^^^^^^^",
"^^^^^^^^^^^^^^^^^^^^^^^^^^^^^^QQQQQQQQQQQQQQQQQQQQQ^^^^^^^^^QQQQQQQQQQQQQQQQQQQQQ^^^^^^^^^^^^^^^^^^^^^^^^^^^^^^^^^^^^^^^^^^^^^^^",
"^^^^^^^^^^^^^^^^^^^^^^^^^^^^QQQQQQQQQQQQQQQQQQQQQ^^^^^^^^^^^^^QQQQQQQQQQQQQQQQQQQQ^^^^^^^^^^^^^^^^^^^^^^^^^^^^^^^^^^^^^^^^^^^^^^",
"^^^^^^^^^^^^^^^^^^^^^^^^^^QQQQQQQQQQQQQQQQQQQQQ^^^^^^^^^^^^^^^^QQQQQQQQQQQQQQQQQQQQQ^^^^^^^^^^^^^^^^^^^^^^^^^^^^^^^^^^^^^^^^^^^^",
"^^^^^^^^^^^^^^^^^^^^^^^^QQQQQQQQQQQQQQQQQQQQQ^^^^^^^^^^^^^^^^^^^^QQQQQQQQQQQQQQQQQQQQ^^^^^^^^^^^^^^^^^^^^^^^^^^^^^^^^^^^^^^^^^^^",
"^^^^^^^^^^^^^^^^^^^^^^QQQQQQQQQQQQQQQQQQQQQ^^^^^^^^^^^^^^^^^^^^^^^^QQQQQQQQQQQQQQQQQQQQ^^^^^^^^^^^^^^^^^^^^^^^^^^^^^^^^^^^^^^^^^",
"^^^^^^^^^^^^^^^^^^^^QQQQQQQQQQQQQQQQQQQQQ^^^^^^^^^^^^^^^^^^^^^^^^^^^QQQQQQQQQQQQQQQQQQQQ^^^^^^^^^^^^^^^^^^^^^^^^^^^^^^^^^^^^^^^^",
"^^^^^^^^^^^^^^^^^^^QQQQQQQQQQQQQQQQQQQQ^^^^^^^^^^^^^^^^^^^^^^^^^^^^^^^QQQQQQQQQQQQQQQQQQQQ^^^^^^^^^^^^^^^^^^^^^^^^^^^^^^^^^^^^^^",
"^^^^^^^^^^^^^^^^^QQQQQQQQQQQQQQQQQQQQ^^^^^^^^^^^^^^^^^^^^^^^^^^^^^^^^^^QQQQQQQQQQQQQQQQQQQQ^^^^^^^^^^^^^^^^^^^^^^^^^^^^^^^^^^^^^",
"^^^^^^^^^^^^^^^QQQQQQQQQQQQQQQQQQQQ^^^^^^^^^^^^^^^^^^^^^^^^^^^^^^^^^^^^^^QQQQQQQQQQQQQQQQQQQQ^^^^^^^^^^^^^^^^^^^^^^^^^^^^^^^^^^^",
"^^^^^^^^^^^^^QQQQQQQQQQQQQQQQQQQQ^^^^^^^^^^^^^^^^^^^^^^^^^^^^^^^^^^^^^^^^^^QQQQQQQQQQQQQQQQQQQ^^^^^^^^^^^^^^^^^^^^^^^^^^^^^^^^^^",
"^^^^^^^^^^^QQQQQQQQQQQQQQQQQQQQ^^^^^^^^^^^^^^^^^^^^^^^^^^^^^^^^^^^^^^^^^^^^^QQQQQQQQQQQQQQQQQQQQ^^^^^^^^^^^^^^^^^^^^^^^^^^^^^^^^",
"^^^^^^^^^QQQQQQQQQQQQQQQQQQQQ^^^^^^^^^^^^^^^^^^^^^^^^^^^^^^^^^^^^^^^^^^^^^^^^^QQQQQQQQQQQQQQQQQQQ^^^^^^^^^^^^^^^^^^^^^^^^^^^^^^^",
"^^^^^^^QQQQQQQQQQQQQQQQQQQQ^^^^^^^^^^^^^^^^^^^^^^^^^^^^^^^^^^^^^^^^^^^^^^^^^^^^QQQQQQQQQQQQQQQQQQQQ^^^^^^^^^^^^^^^^^^^^^^^^^^^^^",
"^^^^^QQQQQQQQQQQQQQQQQQQQ^^^^^^^^^^^^^^^^^^^^^^^^^^^^^^^^^^^^^^^^^^^^^^^^^^^^^^^^QQQQQQQQQQQQQQQQQQQ^^^^^^^^^^^^^^^^^^^^^^^^^^^^",
"^^^^QQQQQQQQQQQQQQQQQQQ^^^^^^^^^^^^^^^^^^^^^^^^^^^^^^^^^^^^^^^^^^^^^^^^^^^^^^^^QQQQQQQQQQQQQQQQQQQQQQQ^^^^^^^^^^^^^^^^^^^^^^^^^^",
"^^^QQQQQQQQQQQQQQQQQQ^^^^^^^^^^^^^^^^^^^^^^^^^^^^^^^^^^^^^^^^^^^^^^^^^^^^^^^^^QQQQQQQQQQQQQQQQQQQQQQQQ^^^^^^^^^^^^^^^^^^^^^^^^^^",
"^^^QQQQQQQQQQQQQQQQ^^^^^^^^^^^^^^^^^^^^^^^^^^^^^^^^^^^^^^^^^^^^^^^^^^^^^^^^^QQQQQQQQQQQQQQQQQQQQQQQQ^^^^^^^^^^^^^QQ^^^^^^^^^^^^^",
"^^^QQQQQQQQQQQQQQ^^^^^^^^^^^^^^^^^^^^^^^^^^^^^^^^^^^^^^^^^^^^^^^^^^^^^^^^^QQQQQQQQQQQQQQQQQQQQQQQQ^^^^^^^^^^^^^^^QQQQQQ^^^^^^^^^",
"^^^QQQQQQQQQQQQQ^^^^^^^^^^^^^^^^^^^^^^^^^^^^^^^^^^^^^^^^^^^^^^^^^^^^^^^^QQQQQQQQQQQQQQQQQQQQQQQQ^^^^^^^^^^^^^^^^^^QQQQQQQQ^^^^^^",
"^^^QQQQQQQQQQQQ^^^^^^^^^^^^^^^^^^^^^^^^^^^^^^^^^^^^^^^^^^^^^^^^^^^^^^^QQQQQQQQQQQQQQQQQQQQQQQQ^^^^^^^^^^^^^^^^^^^^QQQQQQQQQQQQ^^",
"^^^QQQQQQQQQQQQ^^^^^^^^^^^^^^^^^^^^^^^^^^^^^^^^^^^^^^^^^^^^^^^^^^^^^QQQQQQQQQQQQQQQQQQQQQQQQ^^^^^^^^^^^^^^^^^^^^^^QQQQQQQQQQQQQQ",
"^^^QQQQQQQQQQQQ^^^^^^^^^^^^^^^^^^^^^^^^^^^^^^^^^^^^^^^^^^^^^^^^^^^QQQQQQQQQQQQQQQQQQQQQQQQ^^^^^^^^^^^^^^^^^^^^^^^QQQQQQQQQQQQQQ^",
"^^^QQQQQQQQQQQQ^^^^^^^^^^^^^^^^^^^^^^^^^^^^^^^^^^^^^^^^^^^^^^^^^QQQQQQQQQQQQQQQQQQQQQQQQ^^^^^^^^^^^^^^^^^^^^^^^QQQQQQQQQQQQQQQQ^",
"^^^QQQQQQQQQQQQ^^^^^^^^^^^^^^^^^^^^^^^^^^^^^^^^^^^^^^^^^^^^^^^QQQQQQQQQQQQQQQQQQQQQQQQ^^^^^^^^^^^^^^^^^^^^^^^QQQQQQQQQQQQQQQQQ^^",
"^^^QQQQQQQQQQQQ^^^^^^^^^^^^^^^^^^^^^^^^^^^^^^^^^^^^^^^^^^^^^QQQQQQQQQQQQQQQQQQQQQQQQ^^^^^^^^^^^^^^^^^^^^^^^QQQQQQQQQQQQQQQQQQQ^^",
"^^^QQQQQQQQQQQQ^^^^^^^^^^^^^^^^^^^^^^^^^^^^^^^^^^^^^^^^^^^QQQQQQQQQQQQQQQQQQQQQQQQ^^^^^^^^^^^^^^^^^^^^^^^QQQQQQQQQQQQQQQQQQQQQ^^",
"^^^QQQQQQQQQQQQ^^^^^^^^^^^^^^^^^^^^^^^^^^^^^^^^^^^^^^^^^QQQQQQQQQQQQQQQQQQQQQQQQ^^^^^^^^^^^^^^^^^^^^^^^QQQQQQQQQQQQQQQQQQQQQQ^^^",
"^^^QQQQQQQQQQQQ^^^^^^^^^^^^^^^^^^^^^^^^^^^^^^^^^^^^^^^QQQQQQQQQQQQQQQQQQQQQQQQ^^^^^^^^^^^^^^^^^^^^^^^QQQQQQQQQQQQQQQQQQQQQQQQ^^^",
"^^^QQQQQQQQQQQQ^^^^^^^^^^^^^^^^^^^^^^^^^^^^^^^^^^^^^^QQQQQQQQQQQQQQQQQQQQQQQQ^^^^^^^^^^^^^^^^^^^^^^QQQQQQQQQQQQQQQQQQQQQQQQQ^^^^",
"^^^QQQQQQQQQQQQ^^^^^^^^^^^^^^^^^^^^^^^^^^^^^^^^^^^^QQQQQQQQQQQQQQQQQQQQQQQQ^^^^^^^^^^^^^^^^^^^^^^QQQQQQQQQQQQQQQQQQQQQQQQQQQ^^^^",
"^^^QQQQQQQQQQQQ^^^^^^^^^^^^^^^^^^^^^^^^^^^^^^^^^^QQQQQQQQQQQQQQQQQQQQQQQQ^^^^^^^^^^^^^^^^^^^^^^QQQQQQQQQQQQQQQQQQQQQQQQ^QQQ^^^^^",
"^^^QQQQQQQQQQQ^^^^^^^^^^^^^^^^^^^^^^^^^^^^^QQQQQQQQQQQQQQQQQQQQQQQQQQQQ^^^^^^^^^^^^^^^^^^^^^^QQQQQQQQQQQQQQQQQQQQQQQQ^^^QQQ^^^^^",
"^^^QQQQQQQQQQQ^^^^^^^^^^^^^^^^^^^^^^^^^^^QQQQQQQQQQQQQQQQQQQQQQQQQQQQ^^^^^^^^^^^^^^^^^^^^^^QQQQQQQQQQQQQQQQQQQQQQQQ^^^^^^QQ^^^^^",
"^^^QQQQQQQQQQQ^^^^^^^^^^^^^^^^^^^^^^^^^QQQQQQQQQQQQQQQQQQQQQQQQQQQQ^^^^^^^^^^^^^^^^^^^^^^QQQQQQQQQQQQQQQQQQQQQQQQ^^^^^^^^Q^^^^^^",
"^^^QQQQQQQQQQQ^^^^^^^^^^^^^^^^^^^^^^^^^QQQQQQQQQQQQQQQQQQQQQQQQQQ^^^^^^^^^^^^^^^^^^^^^^QQQQQQQQQQQQQQQQQQQQQQQQ^^^^^^^^^^^^^^^^^",
"^^QQQQQQQQQQQQ^^^^^^^^^^^^^^^^^^^^^^^^QQQQQQQQQQQQQQQQQQQQQQQQQ^^^^^^^^^^^^^^^^^^^^^^QQQQQQQQQQQQQQQQQQQQQQQQ^^^^^^^^^^^^^^^^^^^",
"^^QQQQQQQQQQQQ^^^^^^^^^^^^^^^^^^^^^^^^QQQQQQQQQQQQQQQQQQQQQQQ^^^^^^^^^^^^^^^^^^^^^^QQQQQQQQQQQQQQQQQQQQQQQQ^^^^^^^^^^^^^^^^^^^^^",
"^^QQQQQQQQQQQQ^^^^^^^^^^^^^^^^^^^^^^^QQQQQQQQQQQQQQQQQQQQQQ^^^^^^^^^^^^^^^^^^^^^^QQQQQQQQQQQQQQQQQQQQQQQQ^^^^^^^^^^^^^^^^^^^^^^^",
"^^QQQQQQQQQQQQ^^^^^^^^^^^^^^^^^^^^^^^QQQQQQQQQQQQQQQQQQQQ^^^^^^^^^^^^^^^^^^^^^^QQQQQQQQQQQQQQQQQQQQQQQQ^^^^^^^^^^^^^^^^^^^^^^^^^",
"^^QQQQQQQQQQQQ^^^^^^^^^^^^^^^^^^^^^^^QQQQQQQQQQQQQQQQQQ^^^^^^^^^^^^^^^^^^^^^^QQQQQQQQQQQQQQQQQQQQQQQQ^^^^^^^^^^^^^^^^^^^^^^^^^^^",
"^^QQQQQQQQQQQQ^^^^^^^^^^^^^^^^^^^^^^^QQQQQQQQQQQQQQQQ^^^^^^^^^^^^^^^^^^^^^^QQQQQQQQQQQQQQQQQQQQQQQQ^^^^^^^^^^^^^^^^^^^^^^^^^^^^^",
"^^QQQQQQQQQQQQ^^^^^^^^^^^^^^^^^^^^^^^^QQQQQQQQQQQQQQ^^^^^^^^^^^^^^^^^^^^^QQQQQQQQQQQQQQQQQQQQQQQQ^^^^^^^^^^^^^^^^^^^^^^^^^^^^^^^",
"^^QQQQQQQQQQQQ^^^^^^^^^^^^^^^^^^^^^^^^QQQQQQQQQQQQQ^^^^^^^^^^^^^^^^^^^^QQQQQQQQQQQQQQQQQQQQQQQQ^^^^^^^^^^^^^^^^^^^^^^^^^^^^^^^^^",
"^^QQQQQQQQQQQQ^^^^^^^^^^^^^^^^^^^^^^^^^QQQQQQQQQQQ^^^^^^^^^^^^^^^^^^^QQQQQQQQQQQQQQQQQQQQQQQQ^^^^^^^^^^^^^^^^^^^^^^^^^^^^^^^^^^^",
"^^QQQQQQQQQQQQ^^^^^^^^^^^^^^^^^^^^^^^^^^QQQQQQQQQ^^^^^^^^^^^^^^^^^^QQQQQQQQQQQQQQQQQQQQQQQQ^^^^^^^^^^^^^^^^^^^^^^^^^^^^^^^^^^^^^",
"^^QQQQQQQQQQQQ^^^^^^^^^^^^^^^^^^^^^^^^^^^QQQQQQQ^^^^^^^^^^^^^^^^^QQQQQQQQQQQQQQQQQQQQQQQQ^^^^^^^^^^^^^^^^^^^^^^^^^^^^^^^^^^^^^^^",
"^^QQQQQQQQQQQQ^^^^^^^^^^^^^^^^^^^^^^^^^^^^^^^^^^^^^^^^^^^^^^^^^QQQQQQQQQQQQQQQQQQQQQQQQ^^^^^^^^^^^^^^j<#++4j^^^^^^^^^^^^^^^^^^^^",
"^^QQQQQQQQQQQQ^^^^^^^^^^^^^^^^^^^^^^^^^^^^^^^^^^^^^^^^^^^^^^^QQQQQQQQQQQQQQQQQQQQQQQQ^^^^^^^^^^^^^^^<. ... .<^^^^^^^^^^^^^^^^^^^",
"^^QQQQQQQQQQQQ^^^^^^^^^^^^^^^^^^^^^^^^^^^^^^^^^^^^^^^^^^^^^QQQQQQQQQQQQQQQQQQQQQQQQ^^^^^^^^^^^^^^^^-.........>^^^^^^^^^^^^^^^^^^",
"^^QQQQQQQQQQQQ^^^^^^^^^^^^^^^^^^^^^^^^^^^^^^^^^^^^^^^^^^^QQQQQQQQQQQQQQQQQQQQQQQQ^^^^^^^^^^^^^^^^^8.......... q^^^^^^^^^^^^^^^^^",
"^^QQQQQQQQQQQQ^^^^^^^^^^^^^^^^^^^^^^^^^^^^^^^^^^^^^^^^^QQQQQQQQQQQQQQQQQQQQQQQQ^^^^^^^^^^^^^^^^^^^+.......+...#^^^^^^^^^^^^^^^^^",
"^QQQQQQQQQQQQ^^^^^^^^^^^^^^^^^^^^^^^^^^^^^^^^^^^^^^^^QQQQQQQQQQQQQQQQQQQQQQQQ^^^^^^^^^^^^^^^^^^^^u........ ....C^^^^^^^^^^^^^^^^",
"^QQQQQQQQQQQQ^^^^^^^^^^^^^^^^^^^^^^^^^^^^^^^^^^^^^^QQQQQQQQQQQQQQQQQQQQQQQQ^^^^^^^^^^^^^^^^^^^^^^j.....+.......8^^^^^^^^^^^^^^^^",
"^QQQQQQQQQQQQ^^^^^^^^^^^^^^^^^^^^^^^^^^^^^^^^^^^^QQQQQQQQQQQQQQQQQQQQQQQQQ^^^^^^^^^^^^^^^^^^^^^^^j..... .......u^^^^^^^^^^^^^^^^",
"^QQQQQQQQQQQQ^^^^^^^^^^^^^^^^^^^^^^^^^^^^^^^^^^QQQQQQQQQQQQQQQQQQQQQQQQQ^^^^^^^^^^^^^^^^^^^^^^^^^p............+A^^^^^^^^^^^^^^^^",
"^QQQQQQQQQQQQ^^^^^^^^^^^^^^^^^^^^^^^^^^^^^^^^QQQQQQQQQQQQQQQQQQQQQQQQQ^^^^^^^^^^^^^^^^^^^^^^^^^^^^#...........#^^^^^^^^^^^^^^^^^",
"^QQQQQQQQQQQQ^^^^^^^^^^^^^^^^^^^^^^^^^^^^^^QQQQQQQQQQQQQQQQQQQQQQQQQ^^^^^^^^^^^^^^^^^^^^^^^^^^^^^^q...........q^^^^^^^^^^^^^^^^^",
"^QQQQQQQQQQQQ^^^^^^^^^^^^^^^^^^^^^^^^^^^^QQQQQQQQQQQQQQQQQQQQQQQQQ^^^^^^^^^^^^^^^^^^^^^^^^^^^^^^^^^-........ >^^^^^^^^^^^^^^^^^^",
"^QQQQQQQQQQQQ^^^^^^^^^^^^^^^^^^^^^^^^^^QQQQQQQQQQQQQQQQQQQQQQQQQ^^^^^^^^^^^^^^^^^^^^^^^^^^^^^^^^^^^j ....  .>^^^^^^^^^^^^^^^^^^^",
"^QQQQQQQQQQQQ^^^^^^^^^^^^^^^^^^^^^^^^QQQQQQQQQQQQQQQQQQQQQQQQQ^^^^^^^^^^^^^^^^^^^^^^^^^^^^^^^^^^^^^j.....+ &^^^^^^^^^^^^^^^^^^^^",
"^QQQQQQQQQQQQ^^^^^^^^^^^^^^^^^^^^^^QQQQQQQQQQQQQQQQQQQQQQQQQ^^^^^^^^^^^^^^^^^^^^^^^^^^^^^^^^^^^^^^^4..+.+..-^^^^^^^^^^^^^^^^^^^^",
"^QQQQQQQQQQQQ^^^^^^^^^^^^^^^^^^^^QQQQQQQQQQQQQQQQQQQQQQQQQ^^^^^^^^^^^^^^^^^^^^^^^^^^^^^^^^^^^^^^^^^#   . ..-^^^^^^^^^^^^^^^^^^^^",
"^QQQQQQQQQQQQ^^^^^^^^^^^^^^^^^^QQQQQQQQQQQQQQQQQQQQQQQQQ^^^^^^^^^^^^^^^^^^^^^^^^^^^^^^^^^^^^^^^^^^^-  ..  .-^^^^^^^^^^^^^^^^^^^^",
"^QQQQQQQQQQQQ^^^^^^^^^^^^^^^^QQQQQQQQQQQQQQQQQQQQQQQQQ^^^^^^^^^^^^^^^^^^^^^^^^^^^^^^^^^^^^^^^^^^^^^> ......+^^^^^^^^^^^^^^^^^^^^",
"^QQQQQQQQQQQQ^^^^^^^^^^^^^^QQQQQQQQQQQQQQQQQQQQQQQQQ^^^^^^^^^^^^^^^^^^^^^^^^^^^^^^^^^^^^^^^^^^^^^^^4 .+ ...&^^^^^^^^^^^^^^^^^^^^",
"^QQQQQQQQQQQQ^^^^^^^^^^^^QQQQQQQQQQQQQQQQQQQQQQQQQ^^^^^^^^^^^^^^^^^^^^^^^^^^^^^^^^^^^^^^^^^^^^^^^^^4 .  ...4^^^^^^^^^^^^^^^^^^^^",
"^QQQQQQQQQQQQ^^^^^^^^^^QQQQQQQQQQQQQQQQQQQQQQQQQ^^^^^^^^^^^^^^^^^^^^^^^^^^^^^^^^^^^^^^^^^^^^^^^^^^^<  .... d^^^^^^^^^^^^^^^^^^^^",
"QQQQQQQQQQQQQ^^^^^^^^QQQQQQQQQQQQQQQQQQQQQQQQQ^^^^^^^^^^^^^lC^^^^^^^^^^^^^^^^^^^^^^^^^^^^^^^^^^^^^^-  +... l^^^^^^^^^^^^^^^^^^^^",
"QQQQQQQQQQQQ^^^^^^^QQQQQQQQQQQQQQQQQQQQQQQQQ^^^^^^^^^^^^^^^4++<qdY^^^^^^^^^^^^^^^^^^^^^^^^^^^^^^^^^+...... n^^^^^^^^^^^^^^^^^^^^",
"QQQQQQQQQQQQQ^^^^QQQQQQQQQQQQQQQQQQQQQQQQQ^^^^^^^^^^^^^^^^^H+.. .+&<4A^^^^^^^^^^^^^^^^^^^^^^^^^^^^^........j^^^^^^^^^^^^^^^^^^^^",
"QQQQQQQQQQQQQQ^QQQQQQQQQQQQQQQQQQQQQQQQQ^^^^^^^^^^^^^^^^^^^^4.......+.+--R^^^^^^^^^^^^^^^^^^^^^^^^^+.......q^^^^^^^^^^^^^^^^^^^^",
"QQQQQQQQQQQQQQQQQQQQQQQQQQQQQQQQQQQQQQ^^^^^^^^^^^^^^^^^^^^^^8 ........  +H^^^^^^^^^^^^^^^^^^^^^^^^R........&^^^^^^^^^^^^^^^^^^^^",
"QQQQQQQQQQQQQQQQQQQQQQQQQQQQQQQQQQQQ^^^^^^^^^^^^^^^^^^^^^^p&........... 4^^^^^^^^^^^^^^^^^^^^^^^^^R.......+q^^^^^^^^^^^^^^^^^^^^",
"QQQQQQQQQQQQQQQQQQQQQQQQQQQQQQQQQQ^^^^^^^^^^^^^^^^^^^^^^d-..............n^^^^^^^^^^^^^^^^^^^^^^^^^U.......+H^^^^^^^^^^^^^^^^^^^^",
"QQQQQQQQQQQQQQQQQQQQQQQQQQQQQQQQ^^^^^^^^^^^^^^^^^^^^^^j-. . ...........-^^^^^^^^^^^^^^^^^^^^^^^^^^n.......#W^^^^^^^^^^^^^^^^^^^^",
"QQQQQQQQQQQQQQQQQQQQQQQQQQQQQQ^^^^^^^^^^^^^^^^^^^^^^l>.....+...........d^^^^^^^^^^^^^^^^^^^^^^^^^^u.......#^^^^^^^^^^^^^^^^^^^^^",
"^QQQQQQQQQQQQQQQQQQQQQQQQQQQ^^^^^^^^^^^^^^^^^^^^^^C>+ ................&^^^^^^^^^^^^^^^^^^^^^^^^^^p#.......#^^^^^^^^^^^^^^^^^^^^^",
"^^QQQQQQQQQQQQQQQQQQQQQQQQQ^^^^^^^^^^^^^^^^^^^^^C<.. ............ +...q^^^^^^^^^^^^^^^^^^^^^^^^d-.... +...+^^^^^^^^^^^^^^^^^^^^^",
"^^^^QQQQQQQQQQQQQQQQQQQQQ^^^^^^^^^^^^^^^^^^^^^H4+ ...................+H^^^^^^^^^^^^^^^^^^^^^^j-...........+^^^^^^^^^^^^^^^^^^^^^",
"^^^^^QQQQQQQQQQQQQQQQQQ^^^^^^^^^^^^^^^^^^^^^L4+.................  .. 4^^^^^^^^^^^^^^^^^^^^^j-.............+^^^^^^^^^^^^^^^^^^^^^",
"^^^^^^^QQQQQQQQQQQQQQ^^^^^^^^^^^^^^^^^^^^^^q+ .............. . +88..+n^^^^^^^^^^^^^^^^^^^j-. ............ 4^^^^^^^^^^^^^^^^^^^^^",
"^^^^^^^^QQQQQQQQQQQ^^^^^^^^^^^^^^^^^^^^^^q+ ........... +... +>C^^-.-^^^^^^^^^^^^^^^^^^l-+ .............#q^^^^^^^^^^^^^^^^^^^^^^",
"^^^^^^^^^^QQQQQQQ^^^^^^^^^^^^^^^^^^^^^^u+ ..................-j^^^^L#d^^^^^^^^^^^^^^^^l-+..............+q^^^^^^^^^^^^^^^^^^^^^^^^",
"^^^^^^^^^^^QQQQ^^^^^^^^^^^^^^^^^^^^^^p&.................. #p^^^^^^^A^^^^^^^^^^^^^^^n>+............. #q^^^^^^^^^^^^^^^^^^^^^^^^^^",
"^^^^^^^^^^^^^^^^^^^^^^^^^^^^^^^^^^^d-...........+.... ..+8^^^^^^^^^^^^^^^^^^^^^^^C<+..............+q^^^^^^^^^^^^^^^^^^^^^^^^^^^^",
"^^^^^^^^^^^^^^^^^^^^^^^^^^^^^^^^^j-. ........... .... +4H^^^^^^^^^^^^^^^^^^^^^^C>+..............#q^^^^^^^^^^^^^^^^^^^^^^^^^^^^^^",
"^^^^^^^^^^^^^^^^^^^^^^^^^^^^^^^j-....+............. .-n^^^^^^^^^^^^^^^^^^^^^^A4+ .............+q^^^^^^^^^^^^^^^^^^^^^^^^^^^^^^^^",
"^^^^^^^^^^^^^^^^^^^^^^^^^^^^^n-+.......... +.......&d^^^^^^^^^^^^^^^^^^^^^^H4+ .............+q^^^^^^^^^^^^^^^^^^^^^^^^^^^^^^^^^^",
"^^^^^^^^^^^^^^^^^^^^^^^^^^^C<+.................  #u^^^^^^^^^^^^^^^^^^^^^^H4+..............#q^^^^^^^^^^^^^^^^^^^^^^^^^^^^^^^^^^^^",
"^^^^^^^^^^^^^^^^^^^^^^^^^A<+.................. +4L^^^^^^^^^^^^^^^^^^^^^L4+ .............+8^^^^^^^^^^^^^^^^^^^^^^^^^^^^^^^^^^^^^^",
"^^^^^^^^^^^^^^^^^^^^^^^^E-.................. +>C^^^^^^^^^^^^^^^^^^^^^^8+..............+8^^^^^^^^^^^^^^^^^^^^^^^^^^^^^^^^^^^^^^^^",
"^^^^^^^^^^^^^^^^^^^^^^^^^^4+................&j^^^^^^^^^^^^^^^^^^^^^^q+..............#8^^^^^^^^^^^^^^^^^^^^^^^^^^^^^^^^^^^^^^^^^^",
"^^^^^^^^^^^^^^^^^^^^^^^^^^^l&...............j^^^^^^^^^^^^^^^^^^^^^u#..............+8^^^^^^^^^^^^^^^^^^^^^^^^^^^^^^^^^^^^^^^^^^^^",
"^^^^^^^^^^^^^^^^^^^^^^^^^^^^^8............. +8^^^^^^^^^^^^^^^^^^u# .............#8^^^^^^^^^^^^^^^^^^^^^^^^^^^^^^^^^^^^^^^^^^^^^^",
"^^^^^^^^^^^^^^^^^^^^^^^^^^^^^^n-  ............&d^^^^^^^^^^^^^^u#..............#8^^^^^^^^^^^^^^^^^^^^^^^^^^^^^^^^^^^^^^^^^^^^^^^^",
"^^^^^^^^^^^^^^^^^^^^^^^^^^^^^^^^8+..............<H^^^^^^^^^^u& .............#8^^^^^^^^^^^^^^^^^^^^^^^^^^^^^^^^^^^^^^^^^^^^^^^^^^",
"^^^^^^^^^^^^^^^^^^^^^^^^^^^^^^^^^C-..............+q^^^^^^^u&..............+8^^^^^^^^^^^^^^^^^^^^^^^^^^^^^^^^^^^^^^^^^^^^^^^^^^^^",
"^^^^^^^^^^^^^^^^^^^^^^^^^^^^^^^^^^^q+. +...........-j^^^d-..............#8^^^^^^^^^^^^^^^^^^^^^^^^^^^^^^^^^^^^^^^^^^^^^^^^^^^^^^",
"^^^^^^^^^^^^^^^^^^^^^^^^^^^^^^^^^^^^C-  ............+<u-..............+8^^^^^^^^^^^^^^^^^^^^^^^^^^^^^^^^^^^^^^^^^^^^^^^^^^^^^^^^",
"^^^^^^^^^^^^^^^^^^^^^^^^^^^^^^^^^^^^^^u+ ...........   .............+8^^^^^^^^^^^^^^^^^^^^^^^^^^^^^^^^^^^^^^^^^^^^^^^^^^^^^^^^^^",
"^^^^^^^^^^^^^^^^^^^^^^^^^^^^^^^^^^^^^^^H>.....................+ . +8^^^^^^^^^^^^^^^^^^^^^^^^^^^^^^^^^^^^^^^^^^^^^^^^^^^^^^^^^^^^",
"^^^^^^^^^^^^^^^^^^^^^^^^^^^^^^^^^^^^^^^^^p+.....................+8L^^^^^^^^^^^^^^^^^^^^^^^^^^^^^^^^^^^^^^^^^^^^^^^^^^^^^^^^^^^^^",
"^^^^^^^^^^^^^^^^^^^^^^^^^^^^^^^^^^^^^^^^^^H<..................+4L^^^^^^^^^^^^^^^^^^^^^^^^^^^^^^^^^^^^^^^^^^^^^^^^^^^^^^^^^^^^^^^",
"^^^^^^^^^^^^^^^^^^^^^^^^^^^^^^^^^^^^^^^^^^^^d#..............+8L^^^^^^^^^^^^^^^^^^^^^^^^^^^^^^^^^^^^^^^^^^^^^^^^^^^^^^^^^^^^^^^^^",
"^^^^^^^^^^^^^^^^^^^^^^^^^^^^^^^^^^^^^^^^^^^^^L4...........+8L^^^^^^^^^^^^^^^^^^^^^^^^^^^^^^^^^^^^^^^^^^^^^^^^^^^^^^^^^^^^^^^^^^^",
"^^^^^^^^^^^^^^^^^^^^^^^^^^^^^^^^^^^^^^^^^^^^^^^j&.......+8L^^^^^^^^^^^^^^^^^^^^^^^^^^^^^^^^^^^^^^^^^^^^^^^^^^^^^^^^^^^^^^^^^^^^^",
"^^^^^^^^^^^^^^^^^^^^^^^^^^^^^^^^^^^^^^^^^^^^^^^^^4+  .#8L^^^^^^^^^^^^^^^^^^^^^^^^^^^^^^^^^^^^^^^^^^^^^^^^^^^^^^^^^^^^^^^^^^^^^^^",
"^^^^^^^^^^^^^^^^^^^^^^^^^^^^^^^^^^^^^^^^^^^^^^^^^^j&+4L^^^^^^^^^^^^^^^^^^^^^^^^^^^^^^^^^^^^^^^^^^^^^^^^^^^^^^^^^^^^^^^^^^^^^^^^^",
"^^^^^^^^^^^^^^^^^^^^^^^^^^^^^^^^^^^^^^^^^^^^^^^^^^^^L^^^^^^^^^^^^^^^^^^^^^^^^^^^^^^^^^^^^^^^^^^^^^^^^^^^^^^^^^^^^^^^^^^^^^^^^^^^"
};
